# xmcd
#
# Track frame offsets:
#	150
#	15502
#	31412
#	44575
#	59890
#	73062
#	89747
#	102667
#	124392
#	138005
#	153030
#	169032
#
# Disc length: 2435 seconds
#
# Revision: 0
# Processed by: cddbd v1.4PL0 Copyright (c) Steve Scherf et al.
# Submitted via: dBpowerAMP V4.0
#
DISCID=ab09810c
DTITLE=Larry Gatlin and The Gatlin Brothers - 36 All-Time Favorites Disk 3
DYEAR=1900
DGENRE=Country
TTITLE0=She Used To Sing On Sunday
TTITLE1=Sure Fells Like Love
TTITLE2=Almost Called Her Baby By Mistake
TTITLE3=Easy On The Eye
TTITLE4=Houston (Means I'm One Day Closer To You)
TTITLE5=Denver
TTITLE6=The Lady Takes The Cowboy Everytime
TTITLE7=Runaway Go Home
TTITLE8=Nothing But Your Love Matters
TTITLE9=She Used To Somebody's Baby
TTITLE10=Talkin To The Moon
TTITLE11=Love Of A Lifetime
EXTD=
EXTT0=
EXTT1=
EXTT2=
EXTT3=
EXTT4=
EXTT5=
EXTT6=
EXTT7=
EXTT8=
EXTT9=
EXTT10=
EXTT11=
PLAYORDER=
